# xmcd CD database file
#
# Track frame offsets:
#	150
#	20002
#	47235
#
# Disc length: 1147 seconds
#
# Revision: 0
# Processed by: cddbd v1.5.2PL0 Copyright (c) Steve Scherf et al.
# Submitted via: CDex 1.51
#
DISCID=21047903
DTITLE=Shirley Bassey - The Remix Album...Diamonds Are Forever
DYEAR=2000
DGENRE=Jazz
TTITLE0=moonraker (superfunk mix)
TTITLE1=diamonds are forever (mantronik diamond cut club mix
TTITLE2=light my fire (twelftree's full mix)
EXTD=YEAR: 2000
EXTT0=
EXTT1=
EXTT2=
PLAYORDER=
